<svg width="188" height="27" viewBox="0 0 188 27" fill="none" xmlns="http://www.w3.org/2000/svg">
<path d="M18.3596 9.78799L1.11418 9.88889C1.0386 9.88933 0.994555 9.97442 1.03784 10.0364L5.23311 16.0429C5.25065 16.068 5.27936 16.083 5.31 16.083H15.371C15.4023 16.083 15.4316 16.0986 15.449 16.1247L21.9793 25.8859C21.9967 25.9119 22.026 25.9276 22.0573 25.9276H29.6222C29.6983 25.9276 29.7427 25.8418 29.6989 25.7797L18.4367 9.82768C18.419 9.80263 18.3902 9.78781 18.3596 9.78799Z" fill="#FF4800"/>
<path d="M18.3596 9.78799L1.11418 9.88889C1.0386 9.88933 0.994555 9.97442 1.03784 10.0364L5.23311 16.0429C5.25065 16.068 5.27936 16.083 5.31 16.083H15.371C15.4023 16.083 15.4316 16.0986 15.449 16.1247L21.9793 25.8859C21.9967 25.9119 22.026 25.9276 22.0573 25.9276H29.6222C29.6983 25.9276 29.7427 25.8418 29.6989 25.7797L18.4367 9.82768C18.419 9.80263 18.3902 9.78781 18.3596 9.78799Z" fill="url(#paint0_linear_56_2895)"/>
<path d="M14.4046 17.2405H2.8524C2.77664 17.2405 2.73214 17.3257 2.77542 17.3878L5.49839 21.3003C5.51592 21.3255 5.54467 21.3405 5.57537 21.3405H12.1776C12.2095 21.3405 12.2393 21.3568 12.2565 21.3837L15.1436 25.8844C15.1608 25.9113 15.1906 25.9275 15.2225 25.9275H20.1378C20.213 25.9275 20.2576 25.8436 20.2156 25.7813L14.4824 17.2818C14.4649 17.256 14.4358 17.2405 14.4046 17.2405Z" fill="#FF4800"/>
<path d="M14.4046 17.2405H2.8524C2.77664 17.2405 2.73214 17.3257 2.77542 17.3878L5.49839 21.3003C5.51592 21.3255 5.54467 21.3405 5.57537 21.3405H12.1776C12.2095 21.3405 12.2393 21.3568 12.2565 21.3837L15.1436 25.8844C15.1608 25.9113 15.1906 25.9275 15.2225 25.9275H20.1378C20.213 25.9275 20.2576 25.8436 20.2156 25.7813L14.4824 17.2818C14.4649 17.256 14.4358 17.2405 14.4046 17.2405Z" fill="url(#paint1_linear_56_2895)"/>
<path d="M36.8368 1.14441e-05H0.181572C0.105416 1.14441e-05 0.0610089 0.0859786 0.105084 0.148085L5.85242 8.24661C5.87001 8.27139 5.89852 8.28612 5.92891 8.28612H19.1304C19.1605 8.28612 19.1888 8.30057 19.2064 8.32498L31.8467 25.8218C31.8643 25.8462 31.8926 25.8607 31.9227 25.8607H42.5139C42.5909 25.8607 42.6351 25.7729 42.5892 25.711L29.7806 8.43577C29.7347 8.37387 29.7789 8.28612 29.8559 8.28612H42.3229C42.3981 8.28612 42.4427 8.202 42.4005 8.13972L36.9144 0.0412002C36.897 0.0154408 36.8679 1.14441e-05 36.8368 1.14441e-05Z" fill="#FF4800"/>
<path d="M36.8368 1.14441e-05H0.181572C0.105416 1.14441e-05 0.0610089 0.0859786 0.105084 0.148085L5.85242 8.24661C5.87001 8.27139 5.89852 8.28612 5.92891 8.28612H19.1304C19.1605 8.28612 19.1888 8.30057 19.2064 8.32498L31.8467 25.8218C31.8643 25.8462 31.8926 25.8607 31.9227 25.8607H42.5139C42.5909 25.8607 42.6351 25.7729 42.5892 25.711L29.7806 8.43577C29.7347 8.37387 29.7789 8.28612 29.8559 8.28612H42.3229C42.3981 8.28612 42.4427 8.202 42.4005 8.13972L36.9144 0.0412002C36.897 0.0154408 36.8679 1.14441e-05 36.8368 1.14441e-05Z" fill="url(#paint2_linear_56_2895)"/>
<path d="M114.268 0H100.272L99.9036 5.83573H114.268V0Z" fill="#00146A"/>
<path d="M96.5199 20.0143H107.892V25.9276H98.7496L96.5199 20.0143Z" fill="#00146A"/>
<path d="M100.802 16.1605C98.54 16.1605 96.3706 15.3092 94.7711 13.7938C93.1716 12.2785 92.2729 10.2233 92.2729 8.08025C92.2729 5.93724 93.1716 3.882 94.7711 2.36666C96.3706 0.851325 98.54 1.62551e-05 100.802 1.52588e-05L100.802 5.81039C100.167 5.81039 99.5572 6.04954 99.1079 6.47522C98.6586 6.9009 98.4061 7.47825 98.4061 8.08025C98.4061 8.68226 98.6586 9.2596 99.1079 9.68529C99.5572 10.111 100.167 10.3501 100.802 10.3501V16.1605Z" fill="#00146A"/>
<path d="M107.437 10.462C109.729 10.462 111.927 11.2767 113.548 12.7269C115.169 14.1771 116.079 16.1439 116.079 18.1948C116.079 20.2456 115.169 22.2125 113.548 23.6627C111.927 25.1129 109.729 25.9276 107.437 25.9276L107.437 20.0419C107.984 20.0419 108.509 19.8473 108.897 19.5009C109.284 19.1545 109.501 18.6847 109.501 18.1948C109.501 17.7049 109.284 17.2351 108.897 16.8887C108.509 16.5423 107.984 16.3477 107.437 16.3477L107.437 10.462Z" fill="#00146A"/>
<path d="M107.892 10.462L99.4766 10.2346V15.9204L100.386 16.1479L107.892 16.3753V10.462Z" fill="#00146A"/>
<path d="M72.6333 25.9276H66.0889L73.9874 4.21047C73.9874 4.21047 75.1157 1.14441e-05 80.7575 1.14441e-05C86.3993 1.14441e-05 87.5277 4.21047 87.5277 4.21047L95.2005 25.9276H88.8817L86.8506 19.7227H78.5008L80.7575 13.961H84.8196L82.5629 7.0913C82.5629 7.0913 82.1115 5.54008 80.7575 5.54008C79.4035 5.54008 78.9521 7.0913 78.9521 7.0913L72.6333 25.9276Z" fill="#00146A"/>
<path d="M71.5023 1.14441e-05H47.8491V5.45844H69.1131L71.5023 1.14441e-05Z" fill="#00146A"/>
<path d="M62.405 8.18766H56.9465V25.9276H62.405V8.18766Z" fill="#00146A"/>
<path d="M136.466 1.90735e-05L119.718 16.9093V25.9276H125.301V18.9384L128.204 16.0075L136.466 25.9276H143.835L132.446 12.1747L144.281 1.90735e-05H136.466Z" fill="#00146A"/>
<path d="M125.33 1.90735e-05H119.718V13.1912L125.33 7.92412V1.90735e-05Z" fill="#00146A"/>
<path d="M188 13.0666C188 20.2263 182.094 26.0304 174.809 26.0304C167.524 26.0304 161.618 20.2263 161.618 13.0666C161.618 5.90692 167.524 0.102844 174.809 0.102844C182.094 0.102844 188 5.90692 188 13.0666ZM167.624 13.0666C167.624 16.9666 170.841 20.1281 174.809 20.1281C178.777 20.1281 181.994 16.9666 181.994 13.0666C181.994 9.16667 178.777 6.00514 174.809 6.00514C170.841 6.00514 167.624 9.16667 167.624 13.0666Z" fill="#00146A"/>
<path d="M163.343 23.3652C161.355 24.7698 159.003 25.6339 156.538 25.8649C154.073 26.096 151.588 25.6851 149.35 24.6766C147.111 23.668 145.205 22.0997 143.833 20.1398C142.462 18.18 141.678 15.9025 141.566 13.5517C141.454 11.2008 142.017 8.86526 143.196 6.79545C144.374 4.72564 146.124 2.99965 148.257 1.80258C150.389 0.605511 152.825 -0.0174914 155.302 0.000385509C157.779 0.0182624 160.204 0.676344 162.317 1.90406L159.164 6.80306C157.987 6.11917 156.636 5.75259 155.256 5.74263C153.876 5.73267 152.519 6.07971 151.331 6.74653C150.143 7.41335 149.169 8.37479 148.512 9.52777C147.856 10.6807 147.542 11.9817 147.604 13.2913C147.667 14.6008 148.104 15.8694 148.867 16.9611C149.631 18.0529 150.694 18.9265 151.94 19.4883C153.187 20.0501 154.571 20.2789 155.944 20.1503C157.317 20.0216 158.628 19.5402 159.735 18.7578L163.343 23.3652Z" fill="#00146A"/>
<defs>
<linearGradient id="paint0_linear_56_2895" x1="19.7575" y1="10.9428" x2="14.707" y2="23.6973" gradientUnits="userSpaceOnUse">
<stop stop-color="#3966FF"/>
<stop offset="1" stop-color="#4C1EB8"/>
</linearGradient>
<linearGradient id="paint1_linear_56_2895" x1="14.1752" y1="17.8622" x2="11.7059" y2="24.9424" gradientUnits="userSpaceOnUse">
<stop stop-color="#3966FF"/>
<stop offset="1" stop-color="#4C1EB8"/>
</linearGradient>
<linearGradient id="paint2_linear_56_2895" x1="27.8408" y1="1.85088" x2="19.2763" y2="21.8179" gradientUnits="userSpaceOnUse">
<stop stop-color="#3966FF"/>
<stop offset="1" stop-color="#4C1EB8"/>
</linearGradient>
</defs>
</svg>
